<?xml version="1.0" encoding="UTF-8"?>
<svg viewBox="0 0 104.21555 128.48917" xmlns="http://www.w3.org/2000/svg" xmlns:xlink="http://www.w3.org/1999/xlink">
 <defs>
  <filter id="ab">
   <feGaussianBlur stdDeviation="2.8915"/>
  </filter>
  <filter id="g">
   <feGaussianBlur stdDeviation=".9049"/>
  </filter>
  <filter id="aa" x="-.02677" y="-.232" width="1.0535" height="1.464">
   <feGaussianBlur stdDeviation=".7318"/>
  </filter>
  <filter id="ad" x="-.26087" y="-.09945" width="1.5217" height="1.1989">
   <feGaussianBlur stdDeviation="2.7465"/>
  </filter>
  <filter id="ac" x="-.2187" y="-.62486" width="1.4374" height="2.2497">
   <feGaussianBlur stdDeviation=".9949"/>
  </filter>
  <filter id="f" x="-.19578" y="-.6526" width="1.3916" height="2.3052">
   <feGaussianBlur stdDeviation=".4453"/>
  </filter>
  <linearGradient id="z" x1="-109.05" x2="-53.31" gradientUnits="userSpaceOnUse">
   <stop stop-color="#423413" offset="0"/>
   <stop stop-color="#c8b686" offset=".2767"/>
   <stop stop-color="#75633f" offset=".5264"/>
   <stop stop-color="#c1b188" offset=".7762"/>
   <stop stop-color="#2e2b1a" offset="1"/>
  </linearGradient>
  <linearGradient id="y" x1="-105.39" x2="-57.132" gradientUnits="userSpaceOnUse">
   <stop stop-color="#ec981a" offset="0"/>
   <stop stop-color="#f5c61e" offset=".392"/>
   <stop stop-color="#e88114" offset="1"/>
  </linearGradient>
  <linearGradient id="e">
   <stop stop-color="#eb7a00" offset="0"/>
   <stop stop-color="#ebb402" offset="1"/>
  </linearGradient>
  <linearGradient id="b">
   <stop stop-color="#f1ba02" offset="0"/>
   <stop stop-color="#eab801" offset=".1281"/>
   <stop stop-color="#f3bb02" offset=".5195"/>
   <stop stop-color="#f7cb24" offset=".8539"/>
   <stop stop-color="#eb7e06" offset="1"/>
  </linearGradient>
  <linearGradient id="c">
   <stop stop-color="#e47e00" offset="0"/>
   <stop stop-color="#eab801" offset=".1281"/>
   <stop stop-color="#f3bb02" offset=".5195"/>
   <stop stop-color="#f7cb24" offset=".8539"/>
   <stop stop-color="#eb7e06" offset="1"/>
  </linearGradient>
  <linearGradient id="a">
   <stop stop-color="#fff" offset="0"/>
   <stop stop-color="#fff" stop-opacity="0" offset="1"/>
  </linearGradient>
  <linearGradient id="s" x1="-37.519" x2="-118.66" y1="111.52" y2="113.06" gradientUnits="userSpaceOnUse">
   <stop stop-color="#e88114" offset="0"/>
   <stop stop-color="#e88114" stop-opacity="0" offset="1"/>
  </linearGradient>
  <linearGradient id="r" x1="-84.235" x2="-83.966" y1="111.29" y2="96.23" gradientUnits="userSpaceOnUse">
   <stop stop-color="#cd7207" offset="0"/>
   <stop stop-color="#cd7207" stop-opacity="0" offset="1"/>
  </linearGradient>
  <linearGradient id="x" x1="-94.714" x2="-141.36" y1="25.314" y2="174.32" gradientUnits="userSpaceOnUse" xlink:href="#e"/>
  <linearGradient id="w" x1="-76.288" x2="-25.35" y1="49.608" y2="168.89" gradientUnits="userSpaceOnUse" xlink:href="#e"/>
  <linearGradient id="v" x1="-92.702" x2="-73.132" gradientUnits="userSpaceOnUse" xlink:href="#c"/>
  <linearGradient id="u" x1="-93.715" x2="-71.643" gradientUnits="userSpaceOnUse" xlink:href="#c"/>
  <linearGradient id="t" x1="-91.259" x2="-72.735" gradientUnits="userSpaceOnUse" xlink:href="#c"/>
  <radialGradient id="o" cx="-85.164" cy="151.87" r="38.215" gradientTransform="matrix(.99998 -.00617 .01429 2.3143 -2.1712 -200.11)" gradientUnits="userSpaceOnUse">
   <stop stop-color="#e78016" stop-opacity="0" offset="0"/>
   <stop stop-color="#e78016" offset="1"/>
  </radialGradient>
  <radialGradient id="j" cx="-81.451" cy="225.13" r="24.32" gradientTransform="matrix(1.1451 -.00448 .00217 .55538 11.329 99.734)" gradientUnits="userSpaceOnUse">
   <stop stop-color="#f5c61e" offset="0"/>
   <stop stop-color="#ed8602" offset="1"/>
  </radialGradient>
  <radialGradient id="q" cx="114.88" cy="119.71" r="23.875" gradientTransform="matrix(1 0 0 .44218 -197.62 51.984)" gradientUnits="userSpaceOnUse" xlink:href="#b"/>
  <radialGradient id="p" cx="115.18" cy="175.55" r="38.215" gradientTransform="matrix(.94434 -.00855 .02767 3.0575 -196.38 -360.16)" gradientUnits="userSpaceOnUse" xlink:href="#b"/>
  <radialGradient id="n" cx="113.96" cy="123.89" r="38.781" gradientTransform="matrix(.99005 0 0 .17164 -196.1 93.345)" gradientUnits="userSpaceOnUse" xlink:href="#b"/>
  <radialGradient id="m" cx="-74.791" cy="102.76" r="7.8471" gradientTransform="matrix(1.3478 0 0 .67338 26.016 33.562)" gradientUnits="userSpaceOnUse" xlink:href="#a"/>
  <radialGradient id="l" cx="-77.854" cy="96.22" r="11.036" gradientTransform="matrix(.60393 .11745 -.03498 .17986 -27.47 86.162)" gradientUnits="userSpaceOnUse" xlink:href="#a"/>
  <radialGradient id="k" cx="-79.829" cy="86.704" r="9.7851" gradientTransform="matrix(1 0 0 .49807 0 44.687)" gradientUnits="userSpaceOnUse" xlink:href="#a"/>
  <radialGradient id="d" cx="-120.29" cy="83.118" r="14.481" gradientTransform="matrix(1 0 0 1.0829 0 -7.8633)" gradientUnits="userSpaceOnUse" xlink:href="#a"/>
  <radialGradient id="i" cx="-92.807" cy="224.65" r="3.7984" gradientTransform="matrix(1 0 0 .4635 0 120.88)" gradientUnits="userSpaceOnUse" xlink:href="#a"/>
  <radialGradient id="h" cx="-97.114" cy="224.51" r="4.5791" gradientTransform="matrix(1 0 0 .38448 0 138.69)" gradientUnits="userSpaceOnUse" xlink:href="#a"/>
 </defs>
 <g transform="matrix(.67119 0 0 .67119 97.107 388.42)">
  <path d="m-107.44-564.31c-0.72164-5e-3 -1.4353 0.0325-2.0938 0.0937-3.7238 0.1558-7.5046 1.391-10.656 3.7812-2.8238 2.208-4.9297 5.0832-6.3438 8.1562-1.2102 2.628-2.0484 5.3615-2.5938 8.125-0.71414 3.6191-1.0321 7.414-1.1562 11.188-0.16077 5.433 2.0719 10.497 4.8125 14.875 2.9135 4.683 6.3647 8.8778 9.0625 13.25 1.9827 3.2133 4.1 6.1583 6.125 8.9062 2.6152 3.5488 5.0816 6.7366 7.25 9.5 2.4811 3.1619 4.5918 5.7624 6.0938 7.5938 0.0787 0.096 0.11201 0.12698 0.1875 0.21875 6.3763 10.957 16.062 19.611 21.344 23.844 0.72676 0.58236 1.2106 0.93437 1.75 1.3438h-3v3.4062h1.8438c0.34288 2.6142 1.3754 11.811-0.53125 16.469-2.0173 4.928-8.8943 11.035-12.75 14.219l-1.0625-0.15625c-1.1119 0-2 0.75737-2 1.6875v1.5c0 0.0418-0.0036 0.0842 0 0.125-0.08255 0.0263-0.1408 0.0672-0.21875 0.0937l-0.0625-0.0312c-0.3473 0-0.64604 0.15657-0.9375 0.4375-0.53721 0.28237-0.84375 0.57008-0.84375 0.875 0 0.0991 0.03461 0.18423 0.09375 0.28125-0.30851 0.74741-0.5 1.6748-0.5 2.7188v3.875c0 2.4059 0.97439 4.1644 2.1875 4.3438 0 0 15.915 1.9237 23.906 1.9375 8.3488 0.0144 25-1.9375 25-1.9375 1.218 0 2.1875-1.9379 2.1875-4.3438v-3.875c0-0.96098-0.17199-1.8135-0.4375-2.5312 0.15542-0.15589 0.25-0.30713 0.25-0.46875 0-0.38963-0.48207-0.77427-1.3438-1.125-0.15098-0.0942-0.3054-0.12826-0.46875-0.15625l-0.1875-0.0625c0.0056-0.0512 0-0.10384 0-0.15625v-1.5c0-0.93013-0.88811-1.6875-2-1.6875l-0.40625 0.0625c-4.2816-2.7298-12.982-8.7431-15.344-14.125-2.0216-4.6076-0.37305-13.841 0.15625-16.469h2v-3.4062h-2.9688c0.68895-0.56997 1.4263-1.1766 2.4375-2.0625 4.8012-4.2061 12.665-11.729 18.375-20.312 0.06876-0.0736 0.1496-0.14465 0.21875-0.21875 0.64825-0.6949 1.3121-1.4081 2-2.1562 1.977-2.1502 4.1283-4.5484 6.5-7.2812 2.3456-2.7026 4.9193-5.7436 7.6875-9.2812 2.0564-2.6251 4.2821-5.5192 6.4375-8.9375 1.2385-1.9608 2.6747-3.984 4.2188-6.1562s3.1685-4.5124 4.75-7.1562c1.3054-2.1179 2.5595-4.5262 3.4375-7.2188s1.396-5.6607 1.1875-8.9062c-0.27532-3.5641-0.80145-7.3667-1.875-11.281-0.76801-2.8005-1.7796-5.5196-3.125-8.0938-1.6064-3.0806-3.8442-5.9183-6.7188-8.0312-3.2732-2.3319-7.0841-3.4307-10.75-3.5312-2.6501-0.19661-5.8459-0.0361-8.8438 1.5312-0.93331 0.50312-1.7979 1.3204-2.4688 2.4062-0.53363 0.95783-0.80125 1.9447-0.8125 2.9062 0.03411 1.8046 0.5569 3.3271 1.2188 4.5 0.35587 0.56274 0.68243 1.1059 1.0312 1.6562 1.6886 2.0348 3.33 3.9738 4.875 5.8125 1.2325 1.6626 2.2809 3.2646 3.0938 4.8438 0.78714 1.6174 1.4186 3.0189 1.4375 4.25 0.11126 1.0348-0.35183 2.2279-0.8125 3.4062-0.65632 1.5862-1.4672 2.9674-2.1875 4.1562-0.3846 0.55118-0.71489 0.99833-1.0312 1.4688l0.09375-0.3125c-2.7702-1.6873-7.5357-3.1552-13.594-4.2188-3.3838-4.6972-8.4209-8.3356-14.375-10.25v-4.4375h1.6562v-2.0312h-1.625c-0.09311-0.23924-0.18247-0.48686-0.28125-0.71875-2.1278-4.9951-5.5412-8.25-9.4062-8.25-4.0474 0-7.6204 3.5701-9.7188 8.9688h-1.0625v2.0312h1.7812v4.2812c-6.0701 1.8348-11.212 5.4436-14.688 10.156 0.82209-0.13117 1.6681-0.25798 2.5312-0.375 6.0421-0.81914 13.054-1.2812 20.562-1.2812 2.285 0 4.538 0.04 6.7188 0.125-2.0646-0.0759-4.1881-0.0937-6.3438-0.0937-17.113 0-31.712 2.4719-37.656 6l-0.375-0.625c-0.67904-1.2614-1.4635-2.7169-2.0625-4.375-0.42485-1.2264-0.82013-2.5198-0.65625-3.625 0.0908-1.3008 0.75253-2.6918 1.5938-4.2812 0.88707-1.5828 2.0324-3.165 3.3125-4.8125 0.99851-1.2791 2.0885-2.5546 3.25-3.8438 0.34631-0.3841 0.67545-0.78027 1.0312-1.1562 0.0971-0.10266 0.2174-0.2143 0.3125-0.3125l0.1875-0.21875c0.023-0.0282 0.0395-0.0657 0.0625-0.0937 0.37673-0.57628 0.77285-1.1597 1.1562-1.75 0.6839-1.19 1.1778-2.7348 1.2188-4.5938-0.01012-0.9964-0.25839-2.0363-0.8125-3.0312-0.70071-1.1297-1.6019-1.956-2.5625-2.4688-2.3209-1.1977-4.7101-1.5781-6.875-1.5938zm-1.8438 5.875c2.5236-0.0135 4.6596-0.14249 5.9375 0.6875 0.2717 0.17251 0.4802 0.2918 0.5 0.375 0.0541 0.0371 0.0977 0.16797 0.125 0.34375 0.10927 0.41399-0.13936 1.0614-0.4375 1.8125-0.20226 0.36853-0.42496 0.72869-0.625 1.0938-4e-3 9e-3 4e-3 0.0224 0 0.0312-0.10078 0.11626-0.21637 0.23019-0.3125 0.34375-0.37103 0.43826-0.71539 0.87762-1.0625 1.3125-1.1697 1.4646-2.2451 2.94-3.2188 4.4062-1.2573 1.8861-2.3645 3.8031-3.2188 5.75-0.86369 1.864-1.4776 3.9991-1.4375 6.1562 0.13089 2.0956 0.86614 3.6884 1.5938 4.9375 1.0091 1.8159 2.1009 3.2304 3.0625 4.375 0.49523 0.5217 0.89244 0.94801 1.3125 1.375 0.18183 2.1047 2.1888 24.936 5.6562 36.375 0.73521 2.4254 1.7201 4.7867 2.8438 7.0625-1.1399-1.6547-2.234-3.2178-3.5312-5.125-2.0017-2.9431-4.2145-6.2304-6.625-9.9375-1.7982-2.7673-3.724-5.74-5.5312-9.0625-1.2054-2.1964-2.5923-4.3784-4.0312-6.625s-2.9355-4.5481-4.2812-7c-1.0453-1.9743-2.055-4.057-2.75-6.2188s-1.0928-4.3977-0.8125-6.625c0.34214-3.35 0.83352-6.8194 1.75-10.25 0.65568-2.4544 1.4974-4.7881 2.625-6.9062 1.3144-2.4612 2.9514-4.6201 4.9375-6.0625 2.1324-1.6222 4.8629-2.4682 7.5312-2.625zm82.719 0.15625c2.6694 0.10385 5.3925 0.84979 7.5938 2.375 2.0857 1.3831 3.8678 3.4959 5.3438 5.9062 1.288 2.112 2.3242 4.4394 3.1875 6.875 1.1306 3.1898 1.8993 6.7319 2.4375 10.375 0.36782 2.3022 0.13293 4.7029-0.5 7.0938s-1.6707 4.7616-2.8438 7c-2.5247 4.7837-5.7323 9.1877-8.25 13.688-1.8374 3.2851-3.8982 6.3185-5.8438 9.125-2.513 3.6253-4.9118 6.8826-7.0312 9.6875-2.4252 3.2096-4.4768 5.8198-5.9375 7.6875-0.2882 0.36851-0.44645 0.53505-0.6875 0.84375 2.8784-4.6679 5.0393-9.6045 5.6562-14.438 1.4155-11.088 2.4499-28.956 2.6562-32.656 0.75394-0.63594 1.652-1.4602 2.7812-2.5312 1.0095-1.0812 2.1279-2.395 3.1875-4.125 0.76721-1.2087 1.5353-2.735 1.7188-4.75 0.11214-2.1006-0.4157-4.2468-1.2188-6.125-0.81271-1.9919-1.8922-3.9451-3.125-5.875-1.38-1.912-2.8416-3.922-4.375-5.9688-0.22501-0.41231-0.45904-0.80415-0.6875-1.2188-0.27856-0.73904-0.49098-1.3649-0.375-1.7188 0.02846-0.1425 0.02967-0.251 0.0625-0.25-0.0089-0.0414 0.19512-0.11952 0.4375-0.28125 1.2089-0.81588 3.3074-0.68255 5.8125-0.71875zm-34.188 9.875c0.13041-1e-5 0.24666 0.026 0.375 0.0312h-1c0.20534-0.0107 0.42438-0.0312 0.625-0.0312zm-44.625 22.281c2.2839 0.17686 19.068 1.4726 31.625 1.8438-11.968-0.33258-27.732-1.4894-31.594-1.7812l-0.0312-0.0625zm54.656 1.2812c-0.08884 5e-3 -0.16069 0.0262-0.25 0.0312-2.0742 0.11644-4.1686 0.21901-6.2188 0.3125-1.1651 0.0531-2.2544 0.0832-3.375 0.125 3.1602-0.11634 6.5038-0.27916 9.8438-0.46875z" filter="url(#ab)" opacity=".5"/>
  <path transform="translate(389.88 -130.7)" d="m-423.95-273.15c0 2.0905-14.687 3.7852-32.805 3.7852s-32.805-1.6947-32.805-3.7852 14.687-3.7852 32.805-3.7852 32.805 1.6947 32.805 3.7852z" filter="url(#aa)" opacity=".5"/>
  <g transform="translate(14.604 -641.5)">
   <g transform="matrix(.95592 0 0 1 -3.9875 -12.829)">
    <path d="m-106.75 238.19s8.4872 3.0076 12.784 3.6111c4.2496 0.59687 8.5228 0 12.784 0s8.5345 0.59687 12.784 0c4.2969-0.6035 12.784-3.6111 12.784-3.6111 1.2741 0 2.2999 1.9369 2.2999 4.3428v3.8603c0 2.4059-1.0257 4.3428-2.2999 4.3428 0 0-17.397 1.9381-26.131 1.9238-8.3599-0.0138-25.006-1.9238-25.006-1.9238-1.269-0.17931-2.2999-1.9369-2.2999-4.3428v-3.8603c0-2.4059 1.0257-4.3428 2.2999-4.3428z" fill="url(#z)"/>
    <path transform="matrix(1.0202 0 0 1 96.32 -50.498)" d="m-146.85 290.01c0 1.9598-12.099 3.5485-27.023 3.5485s-27.023-1.5887-27.023-3.5485 12.099-3.5485 27.023-3.5485 27.023 1.5887 27.023 3.5485z" fill="#35311f"/>
   </g>
   <path d="m-105.39 224.33s12.596-9.456 15.441-16.406c2.2185-5.4196 0.38602-17.564 0.38602-17.564h15.055s-2.7389 12.202-0.38603 17.564c3.1686 7.2218 17.757 15.634 17.757 15.634s-16.048 2.1877-24.127 2.3162c-8.0576 0.1281-24.127-1.5441-24.127-1.5441z" fill="url(#y)"/>
   <path d="m-118 118.46-0.39652 0.34877c1e-5 -1e-5 1e-5 -1e-5 0-1e-5 -0.26424 0.20484-1.8711-1.2561-4.5888-4.119-0.9616-1.1446-2.0472-2.5577-3.0563-4.3735-0.72761-1.2491-1.4611-2.8503-1.592-4.9459-0.0401-2.1572 0.57296-4.289 1.4366-6.1529 0.85427-1.9469 1.9619-3.8736 3.2192-5.7596 0.97363-1.4662 2.0496-2.9372 3.2193-4.4019 0.34711-0.43488 0.70517-0.87231 1.0762-1.3106v-4e-6l0.31087-0.36288-1e-5 2e-6 -0.0262 0.05311-9e-3 0.01841-1e-5 2e-6 0.64969-1.1848c0.29814-0.75115 0.53983-1.386 0.43056-1.8-0.0273-0.17578-0.0614-0.32306-0.11549-0.36017-0.0198-0.08321-0.22833-0.20477-0.50003-0.37727-1.2779-0.83-3.4254-0.67399-5.949-0.66047-2.6684 0.15676-5.3938 0.98431-7.5261 2.6065-1.9861 1.4424-3.6104 3.6094-4.9248 6.0706-1.1276 2.1182-1.9855 4.4325-2.6412 6.8868-0.91648 3.4306-1.3987 6.9104-1.7408 10.26-0.28025 2.2273 0.11458 4.458 0.80953 6.6198s1.6922 4.2549 2.7375 6.2292c1.3457 2.4519 2.844 4.7483 4.2829 6.995s2.8208 4.4419 4.0262 6.6383c1.8072 3.3225 3.7366 6.2956 5.5348 9.0629 2.4105 3.707 4.6225 6.9721 6.6243 9.9151 2.0235 2.975 3.8369 5.6142 5.4984 8.0068l1.6829 2.41c0.0581 0.0827 0.11612 0.16507 0.17393 0.24712l0.28278 0.41093 0.11158 0.17875 0.0245 0.0497c0.01 0.0253 3e-3 0.0303-0.0189 0.0155l-0.0425-0.035c-0.0353-0.0322-0.0846-0.0821-0.14757-0.14942-0.12455-0.13311-0.30237-0.33396-0.53018-0.59875-0.44495-0.51717-1.0803-1.2779-1.8804-2.2534-1.5019-1.8313-3.5857-4.4179-6.0668-7.5798-2.1684-2.7634-4.6445-5.9624-7.2598-9.5112-2.025-2.7479-4.1596-5.689-6.1424-8.9023-2.6978-4.3722-6.1281-8.5584-9.0416-13.241-2.7406-4.3781-4.9843-9.4468-4.8235-14.88 0.12413-3.7735 0.45215-7.5533 1.1663-11.172 0.54531-2.7635 1.383-5.4978 2.5932-8.1259 1.4141-3.073 3.5039-5.9658 6.3277-8.1738 3.1516-2.3903 6.9508-3.6223 10.675-3.7781 2.6337-0.24486 5.8648-0.08802 8.9594 1.509 0.96057 0.51274 1.856 1.3426 2.5567 2.4722 0.55411 0.99492 0.82097 2.0302 0.83109 3.0266-0.041 1.859-0.55975 3.4014-1.2436 4.5913l-1.1404 1.7501-0.0692 0.08478-0.19436 0.23863-1e-5 8e-6 -0.28827 0.30145c-0.3558 0.37598-0.70614 0.75711-1.0524 1.1412-1.1615 1.2891-2.2461 2.5743-3.2446 3.8534-1.2801 1.6475-2.4079 3.2373-3.295 4.8201-0.84122 1.5894-1.5308 2.9842-1.6216 4.285-0.16388 1.1052 0.25433 2.3756 0.67918 3.602v1e-5c0.59902 1.6581 1.3584 3.1163 2.0375 4.3778 2.015 3.2398 3.0502 5.2471 2.8222 5.4756l0.38937-0.34248z" fill="url(#x)"/>
   <path d="m-47.04 118.46-0.39642-0.34888 5e-6 1e-5h-1e-6c-0.23808-0.23681 0.8702-2.0946 3.0474-5.2149 0.72032-1.1889 1.5282-2.5634 2.1845-4.1495 0.46067-1.1783 0.92795-2.3665 0.81668-3.4013-0.01888-1.2311-0.63696-2.6286-1.4241-4.246-0.81285-1.5791-1.8776-3.1806-3.1101-4.8431-1.545-1.8387-3.166-3.7805-4.8546-5.8153l-1.057-1.6697c-0.66185-1.1729-1.1671-2.6778-1.2012-4.4824 0.01125-0.96154 0.26749-1.9603 0.80112-2.9181 0.67083-1.0859 1.5364-1.8899 2.4697-2.393 2.9979-1.5673 6.1938-1.7547 8.8439-1.5581 3.6659 0.10051 7.4708 1.2131 10.744 3.545 2.8745 2.113 5.121 4.9361 6.7273 8.0166 1.3454 2.5742 2.372 5.2957 3.14 8.0962 1.0736 3.9146 1.5868 7.7298 1.8622 11.294 0.2085 3.2455-0.32228 6.227-1.2003 8.9196s-2.1052 5.0968-3.4106 7.2147c-1.5815 2.6438-3.2348 4.9715-4.7789 7.1438s-2.9813 4.1878-4.2198 6.1487c-2.1554 3.4183-4.3693 6.3237-6.4257 8.9488-2.7682 3.5376-5.3341 6.5779-7.6797 9.2805-2.3717 2.7328-4.5265 5.1186-6.5035 7.2689-0.68792 0.74819-1.3547 1.468-2.0029 2.1629l-0.20687 0.22158-0.34653 0.36146c-0.06613 0.0662-0.11719 0.11453-0.15352 0.14557-0.01852 0.0158-0.03321 0.0271-0.04411 0.034-0.02303 0.0145-0.02916 9e-3 -0.01893-0.0155l0.02605-0.0488 0.11752-0.1749c0.10589-0.14915 0.26722-0.36446 0.47994-0.64234h1e-6c0.41546-0.54274 1.0273-1.3245 1.8055-2.3195 1.4607-1.8678 3.5099-4.4863 5.9351-7.6959 2.1194-2.8049 4.5312-6.0591 7.0442-9.6844 1.9455-2.8065 3.9807-5.8243 5.8182-9.1094 2.5177-4.4998 5.7415-8.9006 8.2662-13.684 1.173-2.2384 2.199-4.6095 2.8319-7.0004s0.87036-4.8008 0.50254-7.1031c-0.53821-3.6431-1.3061-7.1921-2.4367-10.382-0.86329-2.4356-1.9-4.7452-3.188-6.8572-1.4759-2.4104-3.2387-4.5302-5.3244-5.9134-2.2012-1.5252-4.9263-2.2695-7.5956-2.3734-2.5052 0.03615-4.6246-0.10627-5.8335 0.70962-0.24238 0.16173-0.42186 0.25668-0.41297 0.29808-0.03283-0.0014-0.05706 0.10922-0.08552 0.25172-0.11598 0.35383 0.10961 0.952 0.38817 1.691 0.22846 0.4146 0.45515 0.82802 0.68017 1.2403 1.5334 2.0468 2.9935 4.0341 4.3735 5.9462 1.2328 1.9299 2.3115 3.9084 3.1242 5.9002 0.80305 1.8782 1.3513 4.0135 1.2391 6.114-0.18344 2.015-0.96228 3.5364-1.7295 4.7452l-2e-6 1e-5c-1.0596 1.73-2.1938 3.0641-3.2033 4.1453-2.8364 2.6901-4.5597 4.0546-4.8141 3.8584h-1e-6v-1e-5l0.38927 0.34259z" fill="url(#w)"/>
   <path d="m-91.937 94.938v4.5c-6.0701 1.8348-11.212 5.4436-14.688 10.156 6.5767-1.0493 14.512-1.6562 23.094-1.6562 9.2684 0 17.793 0.73118 24.656 1.9375-3.384-4.7144-8.4371-8.362-14.406-10.281v-4.6562h-18.656z" fill="url(#q)"/>
   <path d="m-82.955 84.155c-4.0708 0-7.6532 3.5995-9.7466 9.0507 2.8319 0.12953 5.9478 0.6965 9.4649 0.6965 3.7986 0 7.2924-1.4246 10.105-0.47515-2.0815-5.5684-5.7008-9.2721-9.8235-9.2721z" fill="url(#v)"/>
   <path d="m-93.715 93.111h22.073v2.0399h-22.073z" fill="url(#u)"/>
   <path d="m-121.74 115.31s25.823 2.0096 38.761 2c12.574-9e-3 37.669-2 37.669-2s-1.1634 21.771-2.7399 34.12c-2.4679 19.332-29.47 40.125-29.47 40.125h-8.7348s-23.357-16.058-29.742-37.123c-3.6324-11.983-5.7425-37.123-5.7425-37.123z" fill="url(#p)"/>
   <path d="m-121.74 115.31s25.823 2.0096 38.761 2c12.574-9e-3 37.669-2 37.669-2s-1.1634 21.771-2.7399 34.12c-2.4679 19.332-29.47 40.125-29.47 40.125h-8.7348s-23.357-16.058-29.742-37.123c-3.6324-11.983-5.7425-37.123-5.7425-37.123z" fill="url(#o)"/>
   <path d="m-91.259 188.07h18.524v3.4047h-18.524z" fill="url(#t)"/>
   <path d="m-53.312 115.91c-3.5911 0.25176-7.6018 0.52031-12.25 0.78125-0.07436 5.4352-0.27435 18.326-0.5 26.75-0.50398 18.815-12 38.75-12 38.75s18.743-12.373 23.469-30.562c2.6516-10.207 1.7097-29.069 1.2812-35.719z" fill="#fff" filter="url(#ad)" opacity=".8"/>
   <path d="m-83.154 107.95c-17.983 0-33.217 2.7475-38.519 6.5625l0.92817 6.5312c0.11709 0.0686 0.21675 0.15098 0.34033 0.21875-0.36399-3.522-0.55691-5.9688-0.55691-5.9688s25.556 2.0096 38.364 2c12.449-9e-3 37.281-2 37.281-2s-2.1386 2.52-2.3403 5.8125c0.28237-0.1614 0.52749-0.3348 0.77347-0.5l1.5668-6.5625c-5.8637-3.5715-20.593-6.0938-37.838-6.0938z" fill="url(#n)"/>
   <path transform="matrix(1 0 0 1.4127 3.2755 -41.074)" d="m-73.154 102.76c0 1.0553-2.4442 1.9107-5.4592 1.9107s-5.4592-0.85547-5.4592-1.9107 2.4442-1.9107 5.4592-1.9107 5.4592 0.85546 5.4592 1.9107z" fill="url(#m)" filter="url(#ac)" opacity=".8"/>
   <path d="m-93.715 93.111h22.073v2.0399h-22.073z" fill="url(#l)"/>
   <path d="m-82.955 84.155c-4.0708 0-7.6532 3.5995-9.7466 9.0507 2.8319 0.12953 5.9478 0.6965 9.4649 0.6965 3.7986 0 7.2924-1.4246 10.105-0.47515-2.0815-5.5684-5.7008-9.2721-9.8235-9.2721z" fill="url(#k)"/>
   <path d="m-123 79.219c-11.325-0.53669-18.483 10.949-19.219 21.188-0.38738 3.3147-0.82654 6.7683-0.59375 10.156 0.73294-10.618 3.1938-24.527 14.469-28.688 4.0974-0.95626 10.586-2.3054 12.969 2.0312-0.20597 6.2126-6.8809 9.7239-8.7188 15.5-1.5128 3.5726-1.0933 3.0382 0.4375 0 2.5174-5.8966 10.463-9.3245 9.6875-16.312-1.1493-3.3848-5.8225-3.9856-9.0312-3.875zm-2.3125 23.5c0.13777-0.0782-0.0851-0.0945 0 0z" fill="url(#d)" filter="url(#g)"/>
   <path transform="matrix(-1 0 0 1 -164.92 0)" d="m-123 79.219c-11.325-0.53669-18.483 10.949-19.219 21.188-0.38738 3.3147-0.82654 6.7683-0.59375 10.156 0.73294-10.618 3.1938-24.527 14.469-28.688 4.0974-0.95626 10.586-2.3054 12.969 2.0312-0.20597 6.2126-6.8809 9.7239-8.7188 15.5-1.5128 3.5726-1.0933 3.0382 0.4375 0 2.5174-5.8966 10.463-9.3245 9.6875-16.312-1.1493-3.3848-5.8225-3.9856-9.0312-3.875zm-2.3125 23.5c0.13777-0.0782-0.0851-0.0945 0 0z" fill="url(#d)" filter="url(#g)"/>
   <path d="m-83.154 107.95c-17.983 0-33.217 2.7475-38.519 6.5625l0.92817 6.5312c0.11709 0.0686 0.21675 0.15098 0.34033 0.21875-0.36399-3.522-0.55691-5.9688-0.55691-5.9688s25.556 2.0096 38.364 2c12.449-9e-3 37.281-2 37.281-2s-2.1386 2.52-2.3403 5.8125c0.28237-0.1614 0.52749-0.3348 0.77347-0.5l1.5668-6.5625c-5.8637-3.5715-20.593-6.0938-37.838-6.0938z" fill="url(#s)"/>
   <path d="m-91.937 94.938v4.5c-6.0701 1.8348-11.212 5.4436-14.688 10.156 6.5767-1.0493 14.512-1.6562 23.094-1.6562 9.2684 0 17.793 0.73118 24.656 1.9375-3.384-4.7144-8.4371-8.362-14.406-10.281v-4.6562h-18.656z" fill="url(#r)"/>
   <path d="m-103.76 222.01s7.4065 1.1627 11.156 1.3961c3.7085 0.23075 7.4375 0 11.156 0s7.4478 0.23075 11.156 0c3.7498-0.23332 11.156-1.3961 11.156-1.3961 1.1119 0 2.007 0.7488 2.007 1.6789v1.4924c0 0.93012-0.89513 1.6789-2.007 1.6789 0 0-14.845 1.3961-22.313 1.3961s-22.313-1.3961-22.313-1.3961c-1.1074-0.0693-2.007-0.7488-2.007-1.6789v-1.4924c0-0.93013 0.89513-1.6789 2.007-1.6789z" fill="url(#j)"/>
   <path transform="matrix(1 0 0 .88108 0 26.698)" d="m-92.807 225.31c0 0.45226-1.2221 0.81889-2.7296 0.81889s-2.7296-0.36663-2.7296-0.81889 1.2221-0.81888 2.7296-0.81888 2.7296 0.36662 2.7296 0.81888z" fill="url(#i)" filter="url(#f)"/>
   <path transform="matrix(1.7304 0 0 .88108 93.992 27.244)" d="m-92.807 225.31c0 0.45226-1.2221 0.81889-2.7296 0.81889s-2.7296-0.36663-2.7296-0.81889 1.2221-0.81888 2.7296-0.81888 2.7296 0.36662 2.7296 0.81888z" fill="url(#h)" filter="url(#f)"/>
  </g>
 </g>
</svg>
