<?xml version="1.0" encoding="UTF-8"?>
<svg version="1.1" viewBox="0 0 257 194" xmlns="http://www.w3.org/2000/svg">
 <g transform="translate(-371.88 -497.56)" stroke="#000" stroke-dashoffset="1.5" stroke-linecap="round" stroke-linejoin="round" stroke-width="2">
  <path d="m492.91 619.54c-1.5152-20.708-0.68782-48.111 3.0304-50.406 3.5697-2.2037 16.668-4.0406 16.668-4.0406l28.284-2.0203c22.728 1.0102 29.294-0.50508 30.81 4.5457 1.5152 5.0508 14.142 43.437 14.142 48.487 0 5.0508-3.5355 17.173-3.5355 17.173" fill="#f7f727"/>
  <path d="m557.56 589.34l4.5457 24.749" fill="#ff0"/>
  <path d="m505.54 593.38l1.5152 19.193" fill="#ff0"/>
 </g>
 <path transform="translate(-371.88 -497.56)" d="m540.64 548.17l-1.2627 19.445s-10.102 6.566-14.647 6.566c-4.5457 0-9.0914-8.5863-9.0914-8.5863" fill="#c89664" stroke="#000" stroke-dashoffset="1.5" stroke-linecap="round" stroke-linejoin="round" stroke-width="2"/>
 <path d="m144.31 11.506c-8.5207 4.1632-14.655 15.22-14.177 29.64 0.6709 20.25 9.5785 26.892 13.114 26.892s16.965-0.70924 22.851-11.173c2.2729-4.0406 2.63-7.3892 2.63-7.3892 3.5609 0.88452 5.0761-3.9137 5.0761-3.9137l1.0508-1.6815 0.88366-18.445-8.5714-11.429-22.857-2.5z" fill="#c89664" stroke="#000" stroke-dashoffset="1.5" stroke-linecap="round" stroke-linejoin="round" stroke-width="2"/>
 <path transform="translate(-3.2768 .32768) matrix(.42 0 0 .46667 18.096 -180.1)" d="m322.84 453.91a3.3426 1.7571 0 1 1 -6.6852 0 3.3426 1.7571 0 1 1 6.6852 0z" stroke="#000" stroke-dashoffset="1.5" stroke-linecap="round" stroke-linejoin="round" stroke-width="4.5175"/>
 <path transform="translate(-371.88 -497.56)" d="m512.63 534.07c-3.5714 8.9286-5.7143 7.8572-3.5714 8.9286s5.3572 1.0714 5.3572 1.0714" fill="none" stroke="#000" stroke-dashoffset="1.5" stroke-linecap="round" stroke-linejoin="round" stroke-width="1.5"/>
 <path transform="translate(-371.88 -497.56)" d="m503.27 524.43c2.7779-9.849 18.183-10.102 18.183-10.102l17.93 5.3033s-2.5254-0.63134 0 0c0.75762 5.0508 0 13.132 0 13.132s0.25254 0 2.5254-0.50508c2.2728-0.50507 5.0508 2.5254 5.0508 5.8084s-1.2627 4.9245-1.2627 4.9245l3.9143-3.4093s2.1466-16.92 0.12627-22.981c-2.0203-6.0609-13.89-13.637-21.971-13.637-8.0812 0-21.558 0.68331-23.991 3.7881-7.3236 9.3439-0.50508 17.678-0.50508 17.678z" stroke="#000" stroke-dashoffset="1.5" stroke-linecap="round" stroke-linejoin="round" stroke-width="2"/>
 <path transform="translate(-371.88 -497.56)" d="m507.16 552.03c8.1013-0.75762 12.374-2.0024 12.374-2.0024 1.5152 3.283-3.5945 5.3221-5.177 5.5379-5.5558 0.75761-7.1973-3.5355-7.1973-3.5355z" fill="#fff" stroke="#000" stroke-dashoffset="1.5" stroke-linecap="round" stroke-linejoin="round" stroke-width="2"/>
 <g transform="translate(-371.88 -497.56)" fill="#fff" stroke="#000" stroke-dashoffset="1.5" stroke-linecap="round" stroke-linejoin="round" stroke-width="2">
  <path d="m385.24 656.41l1.3235 16.68 209.46-0.46 0.97054-17.14-211.76 0.92z"/>
  <path d="m463.34 614.66l103.69-0.48531 29.417 42.23-211.86-0.0622 30.484-31.94"/>
  <path d="m480.82 620.3l-8.57 29.28 42.14-0.71-6.42-29.29-27.15 0.72z"/>
 </g>
 <path transform="translate(-371.88 -497.56)" d="m451.51 628.22c0.27873 1.053 0.36629 0.9295 1.9062 2.1544 2.8109 0.73047 3.3093-0.0226 5.5473 1.6607 1.2819 0.96413 2.0928 3.4971 3.1928 4.451 0.65735 0.41904 3.4283 0.40683 4.3456-0.69857 1.2901 0.7771 2.5725 0.5223 3.3564 0.33576 1.0158-0.24173 1.1954-0.71218 1.7467-1.5032 0.96152 0.20288 1.5806 0.16509 1.987-0.20261 0.68227-0.61726 1.2144-1.3585 1.4049-1.9228 2.4212 1.4668 4.6014 3.072 5.2313 2.757 0.75761-0.37881 1.8354-1.3303-0.0587-2.9718-1.4548-1.2608-4.6124-7.898-6.9563-10.315-0.19566-1.9041-3.6229-1.9131-5.7658-2.8952-6.4034-2.9349-12.58-3.1401-12.58-3.1401s-2.2269 3.736-2.6057 6.6402-0.7296 4.9168-0.7296 4.9168" fill="#dba28a" stroke="#000" stroke-dashoffset="1.5" stroke-linecap="round" stroke-linejoin="round" stroke-width="2"/>
 <path transform="translate(-371.88 -497.56)" d="m462.57 614.02l-1.2257 1.6452s-2.8474-1.5023-5.6758-0.24092c-2.0484 0.91352-5.1825 10.164-3.4436 15.253 0.19512 0.57101-0.59698 0.96551-0.59698 0.96551s-43.643-9.6551-45.663-9.6551c-2.0203 0-6.566-7.0711-6.566-11.617v-7.0711l27.274-38.386s1.2627-1.5152 10.354-0.25254l30.633 1.9463c8.5863-1.0102 12.122-2.0203 13.132 2.5254 1.0102 4.5457 4.5457 29.8 7.0711 33.335 2.5254 3.5355 7.4895 11.204 7.4895 11.204" fill="#f32020" stroke="#000" stroke-dashoffset="1.5" stroke-linecap="round" stroke-linejoin="round" stroke-width="2"/>
 <path transform="translate(-371.88 -497.56)" d="m471.19 613.58l2.0203-28.789" fill="#fff" stroke="#000" stroke-dashoffset="1.5" stroke-linecap="round" stroke-linejoin="round" stroke-width="2"/>
 <path transform="translate(-371.88 -497.56)" d="m429.2 592.69-10.607 15.657 43.67 5.0519" fill="#f32020" stroke="#000" stroke-dashoffset="1.5" stroke-linecap="round" stroke-linejoin="round" stroke-width="2"/>
 <path transform="translate(-371.88 -497.56)" d="m465.31 566.56s-5.8084 14.016-8.3338 14.521c-2.5254 0.50508-12.627-0.75761-19.638-15.95l4.5621-9.1257" fill="#dba28a" stroke="#000" stroke-dashoffset="1.5" stroke-linecap="round" stroke-linejoin="round" stroke-width="2"/>
 <path transform="translate(-371.88 -497.56)" d="m483.09 541.88c-2.855 16.114-14.42 25.616-23.987 26.351-7.5972-0.49206-12.959-7.5474-17.078-13.173-3.0776-4.204-2.404-3.6903-3.809-9.2346-1.0621-12.655-9.7224-26.364 1.9135-31.654 11.788-5.7892 26.803-8.9402 36.185 0.38405 7.7264 7.3757 9.1472 16.807 6.7759 27.326z" fill="#dba28a" stroke="#000" stroke-dashoffset="1.5" stroke-linecap="round" stroke-linejoin="round" stroke-width="2"/>
 <path transform="matrix(.16636 .10167 -.24334 .3982 153.77 -174.11)" d="m315.71 452.36a1.7857 2.1429 0 1 1 -3.5714 0 1.7857 2.1429 0 1 1 3.5714 0z" stroke="#000" stroke-dashoffset="1.5" stroke-linecap="round" stroke-linejoin="round" stroke-width="6.6304"/>
 <path transform="matrix(.16636 .10167 -.24334 .3982 164.34 -171.44)" d="m315.71 452.36a1.7857 2.1429 0 1 1 -3.5714 0 1.7857 2.1429 0 1 1 3.5714 0z" stroke="#000" stroke-dashoffset="1.5" stroke-linecap="round" stroke-linejoin="round" stroke-width="6.6304"/>
 <path transform="translate(-371.88 -497.56)" d="m468.27 548.46c1.9614 0.89571 6.43 1.2143 5.84-0.28-0.95105-5.3609-0.77248-7.5038-0.77248-7.5038" fill="none" stroke="#000" stroke-dashoffset="1.5" stroke-linecap="round" stroke-linejoin="round" stroke-width="1.5"/>
 <path transform="translate(-371.88 -497.56)" d="m462.09 555.67c8.5714 0.89286 10.179 0.17858 10.179 0.17858s0.0504-0.19466 0 0c-0.82355 3.178-5.8929 5.7143-7.1429 5.7143s-3.0357-5.8929-3.0357-5.8929z" fill="#fff" stroke="#000" stroke-dashoffset="1.5" stroke-linecap="round" stroke-linejoin="round" stroke-width="2"/>
 <path transform="translate(-371.88 -497.56)" d="m445.6 534.38c7.19-1.34 17.991-6.4729 24.332-10.419 7.2597-4.5172 9.8237-5.5234 11.283-3.3293 1.7765 2.6707 2.6057 6.2249 3.0257 11.682 6.0119-4.0194 4.3624-15.877-4.1601-23.511-8.6749-7.771-24.355-11.244-33-6.5044-14.832 8.1315-16.662 16.407-28.999 45.32 5.3538 4.2253 18.465 9.568 24.098 6.9154-0.35335-1.453 1.1824-4.7533 0.12524-7.8249-5.8552 2.1624-4.8351-12.365-3.7682-13.346 2.6238-2.4108 4.9634 0.85239 7.0628 1.0163z" fill="#6b2e00" stroke="#000" stroke-dashoffset="1.5" stroke-linecap="round" stroke-linejoin="round" stroke-width="2"/>
 <g transform="translate(-636.37 -692.02)" stroke="#000" stroke-dashoffset="1.5" stroke-linecap="round" stroke-linejoin="round" stroke-width="2">
  <path d="m869.77 766.92c0 18.147-12.472 32.5-27.857 32.5-6.5445 0-10.872-2.059-15.928-5.0975-3.4921-2.099-9.6568-16.975-9.6568-27.402 0-18.146 10.199-32.857 25.584-32.857s27.857 14.711 27.857 32.857z" fill="#ffcb9f"/>
  <path d="m814.06 750.85c5.7143 10.357 13.929 16.429 16.786 20 2.6018 3.2523 16.786 9.6428 16.786 12.5 0 2.8571 2.1429 5.7143 2.1429 5.7143 13.633-3.4208 13.063 1.9937 16.025-3.3875 4.2857-7.8571 7.5265-22.487 6.1174-33.041-0.76808-5.7531-3.54-11.016-7.5-15.714-4.8163-5.7143-17.677-8.4984-26.429-8.2143-9.6642 0.31378-17.857 4.2857-21.429 7.8571-3.5714 3.5714-2.5 14.286-2.5 14.286z" fill="#6b2e00"/>
  <path d="m831.81 792.26c3.9286 8.5714 4.3866 19.311 6.1723 19.311s20.714-9.2857 23.929-14.643c3.2143-5.3572-0.35714-8.2143-0.35714-8.2143" fill="#ffcb9f"/>
  <path d="m840.48 800.14s-5.7143 1.7857-13.571 3.9286c-7.8572 2.1429-10.714 6.4286-29.375 60.268l0.0893 9.0179c-0.75742-0.25247 10.428 7.9315 21.637 9.3117 12.279 1.5119 37.291-2.526 37.291-2.526s36.786-7.5 36.786-15.357c0-7.8571-8.5714-70.714-12.143-72.857-3.5714-2.1429-8.5714-3.5714-21.429-0.71429l-6.1782 4.7981-13.108 4.1305z" fill="#1e1e96"/>
 </g>
 <path d="m24.254 73.01c0 18.146 12.472 32.5 27.857 32.5 6.5445 0 10.872-2.059 15.928-5.0975 3.4921-2.099 9.6568-16.975 9.6568-27.402 0-18.146-10.199-32.857-25.584-32.857s-27.857 14.711-27.857 32.857z" fill="#7a4a1e" stroke="#000" stroke-dashoffset="1.5" stroke-linecap="round" stroke-linejoin="round" stroke-width="2"/>
 <path d="m62.54 95.635c-3.9286 8.5714-5.9305 21.473-7.7162 21.473s-19.17-11.447-22.385-16.804c-3.2143-5.3572 0.35714-8.2143 0.35714-8.2143" fill="#7a4a1e"/>
 <path d="m53.868 108.52s5.7143 1.7857 13.571 3.9286c7.8571 2.1429 10.714 6.4286 29.375 60.268l-0.0893 12.099s-30.888 8.1022-40.888 8.8165-55.837-8.2248-55.837-16.082c0-7.8571 9.5816-75.102 13.153-77.244 3.5714-2.1429 8.5714-3.5714 21.429-0.71429l6.1781 4.7981 13.108 4.1305z" fill="#208853" stroke="#000" stroke-dashoffset="1.5" stroke-linecap="round" stroke-linejoin="round" stroke-width="2"/>
 <path d="m81.342 54.001c-5.0738 7.2583-12.367 11.513-14.904 14.016-2.3102 2.2792-9.1855 23.903-8.935 25.896 0.89693 7.1346-7.8693 7.8101-13.253 7.3982-16.42-1.2562-19.597-7.476-19.597-7.476s-4.5542-13.915-1.8569-24.377c1.5847-6.1461-0.07652-1.807 1.1746-9.2034 0.68201-4.0317 9.1432-12.722 12.659-16.015 4.2765-4.0046 15.696-5.9557 23.466-5.7566 8.5809 0.2199 15.856 3.0034 19.027 5.5063 3.1711 2.5029 2.2198 10.011 2.2198 10.011z" fill="#2b2727" stroke="#000" stroke-dashoffset="1.5" stroke-linecap="round" stroke-linejoin="round" stroke-width="2"/>
 <path transform="translate(-.65536 -.98304) matrix(.42 0 0 .46667 2.0395 -180.1)" d="m322.84 453.91a3.3426 1.7571 0 1 1 -6.6852 0 3.3426 1.7571 0 1 1 6.6852 0z" stroke="#000" stroke-dashoffset="1.5" stroke-linecap="round" stroke-linejoin="round" stroke-width="4.5175"/>
 <path d="m59.903 104.45-1.8527 4.9405" fill="none" stroke="#000" stroke-width="1.4"/>
</svg>
